<svg id="图层_1" data-name="图层 1" xmlns="http://www.w3.org/2000/svg" viewBox="0 0 460.44 119.64"><defs><style>.cls-1,.cls-2{fill:#fff;}.cls-1{fill-rule:evenodd;}</style></defs><title>未标题-1</title><path class="cls-1" d="M104.47,91.34a12.77,12.77,0,1,0,12.77,12.77A12.76,12.76,0,0,0,104.47,91.34ZM90,.81H28.63A27.54,27.54,0,0,0,1.17,28.27V89.61a27.54,27.54,0,0,0,27.46,27.46H90l1.19,0a18.48,18.48,0,0,1-5.25-12.93,18.71,18.71,0,0,1,.47-4.2H28.63a10.34,10.34,0,0,1-10.31-10.3V28.27A10.34,10.34,0,0,1,28.63,18H90a10.33,10.33,0,0,1,10.3,10.31V86a18.78,18.78,0,0,1,4.2-.48,18.48,18.48,0,0,1,12.93,5.25c0-.39,0-.79,0-1.18V28.27A27.54,27.54,0,0,0,90,.81ZM89,88.6V29.28H71.8V50.36h-25V29.28H29.64V88.6H46.8V67.52h25V88.6Z"/><path class="cls-2" d="M240,76.05h18.89a8.6,8.6,0,0,1-1.23-4.42v-9.9H241.1a5.61,5.61,0,0,1-5.61-5.6V30.57A5.61,5.61,0,0,1,241.1,25h18.75a5.61,5.61,0,0,1,5.61,5.61V51.85c.27,0,.54,0,.82,0h8.87a8.63,8.63,0,0,1,4.63,1.35V29.44A18.8,18.8,0,0,0,261,10.64H240a18.8,18.8,0,0,0-18.8,18.8V57.26A18.8,18.8,0,0,0,240,76.05Z"/><rect class="cls-2" x="261.81" y="55.99" width="17.96" height="20.05" rx="4.46"/><polygon class="cls-2" points="210.67 75.49 210.67 11.18 194.92 11.18 194.92 35.47 167.82 35.47 167.82 11.19 152.07 11.19 152.07 75.5 167.82 75.5 167.82 51.23 194.92 51.23 194.92 75.49 210.67 75.49"/><path class="cls-2" d="M165.27,91.81a8.13,8.13,0,0,0-3.7.82,7.72,7.72,0,0,0-2.72,2.3h-.26l-.38-2.66h-3.77v20H159V100.63a4.88,4.88,0,0,1,1.3-3.5,4.2,4.2,0,0,1,3.19-1.36,3.24,3.24,0,0,1,3.68,3.8v12.69h4.56V98.77q0-3.64-1.71-5.3A6.56,6.56,0,0,0,165.27,91.81Z"/><path class="cls-2" d="M185.26,91.81q-4.83,0-7.2,2.55t-2.37,7.9c0,3.58.78,6.21,2.35,7.91s4,2.54,7.22,2.54a10.05,10.05,0,0,0,6.35-1.88,6.6,6.6,0,0,0,2.43-5.56h-4.48a3.53,3.53,0,0,1-1.18,2.87,4.73,4.73,0,0,1-3.08,1,4.59,4.59,0,0,1-3.71-1.38,7.23,7.23,0,0,1-1.27-4.35H194V102q0-5.25-2.19-7.72C190.4,92.64,188.2,91.81,185.26,91.81Zm-4.86,8.33a5.79,5.79,0,0,1,1.42-3.56,4.68,4.68,0,0,1,3.44-1.16c2.69,0,4,1.58,4,4.72Z"/><polygon class="cls-2" points="215.17 92.27 209.96 92.27 205.9 98.54 205.67 98.54 201.64 92.27 196.13 92.27 202.82 101.96 195.64 112.26 200.8 112.26 205.36 105.27 205.59 105.27 210.08 112.26 215.55 112.26 208.4 101.85 215.17 92.27"/><path class="cls-2" d="M223.3,86.68h-3.65l-.84,5.59h-2.5V96h2.43v11.75a5.56,5.56,0,0,0,1.12,3.55,4.39,4.39,0,0,0,3.67,1.42,8.06,8.06,0,0,0,1.67-.19,10.13,10.13,0,0,0,1.52-.41V109h-1.79c-1.09,0-1.63-.57-1.63-1.71V96h3.42V92.27H223.3Z"/><path class="cls-2" d="M240.89,91.81a7.79,7.79,0,0,0-3.53.8,6.58,6.58,0,0,0-2.59,2.32h-.22l-.38-2.66H230.4v26.56H235v-8.89h.23q1.83,2.78,6,2.77a6.76,6.76,0,0,0,5.58-2.62c1.4-1.75,2.09-4.34,2.09-7.79s-.69-6.18-2.09-7.9A7.14,7.14,0,0,0,240.89,91.81Zm3.27,10.72a8.46,8.46,0,0,1-1.06,4.77,4.08,4.08,0,0,1-3.58,1.5,3.88,3.88,0,0,1-3.45-1.6,8.23,8.23,0,0,1-1.11-4.71V102a8.29,8.29,0,0,1,1.11-4.72,3.89,3.89,0,0,1,3.45-1.59,4.08,4.08,0,0,1,3.58,1.5,8.54,8.54,0,0,1,1.06,4.81Z"/><path class="cls-2" d="M257.38,97.12a3.9,3.9,0,0,1,3.46-1.62,3.84,3.84,0,0,1,3,1.06,4.7,4.7,0,0,1,.95,3.2h4.63a7.63,7.63,0,0,0-2.2-5.93,9,9,0,0,0-6.27-2q-4.68,0-7,2.55c-1.54,1.7-2.3,4.33-2.3,7.9s.76,6.21,2.28,7.91,3.85,2.54,7,2.54a8.75,8.75,0,0,0,6.25-2.09,7.63,7.63,0,0,0,2.22-5.85H265a4.54,4.54,0,0,1-1,3.16,3.82,3.82,0,0,1-3,1.1,4.16,4.16,0,0,1-3.63-1.58,8.64,8.64,0,0,1-1.12-4.92v-.46A8.92,8.92,0,0,1,257.38,97.12Z"/><path class="cls-2" d="M284.1,91.81q-4.19,0-6,2.78h-.22V84.78h-4.56v27.48h3.76l.38-2.66h.23a6.55,6.55,0,0,0,2.58,2.32,7.79,7.79,0,0,0,3.53.79,7.14,7.14,0,0,0,5.89-2.58c1.4-1.72,2.09-4.36,2.09-7.9s-.69-6-2.09-7.79A6.77,6.77,0,0,0,284.1,91.81Zm3,10.72A8.38,8.38,0,0,1,286,107.3a4.07,4.07,0,0,1-3.57,1.5,3.92,3.92,0,0,1-3.46-1.58,8.14,8.14,0,0,1-1.1-4.69v-.46q0-6.34,4.56-6.34a4.07,4.07,0,0,1,3.57,1.5,8.46,8.46,0,0,1,1.06,4.81Z"/><rect class="cls-2" x="296.07" y="107.43" width="4.75" height="4.83"/><path class="cls-2" d="M310.85,97.12a3.89,3.89,0,0,1,3.46-1.62,3.8,3.8,0,0,1,3,1.06,4.7,4.7,0,0,1,1,3.2h4.64a7.63,7.63,0,0,0-2.21-5.93,9,9,0,0,0-6.27-2c-3.11,0-5.44.85-7,2.55s-2.3,4.33-2.3,7.9.76,6.21,2.28,7.91,3.85,2.54,7,2.54a8.73,8.73,0,0,0,6.25-2.09,7.6,7.6,0,0,0,2.23-5.85h-4.41a4.54,4.54,0,0,1-1,3.16,3.79,3.79,0,0,1-2.94,1.1,4.16,4.16,0,0,1-3.63-1.58,8.56,8.56,0,0,1-1.12-4.92v-.46A8.83,8.83,0,0,1,310.85,97.12Z"/><path class="cls-2" d="M335.36,91.81c-3.29,0-5.76.85-7.39,2.55s-2.45,4.33-2.45,7.9.81,6.21,2.45,7.91,4.1,2.54,7.39,2.54,5.76-.84,7.39-2.54,2.45-4.33,2.45-7.91-.81-6.2-2.45-7.9S338.65,91.81,335.36,91.81Zm5.13,10.72a8,8,0,0,1-1.22,4.88,5.65,5.65,0,0,1-7.84,0,8.06,8.06,0,0,1-1.2-4.88V102a8,8,0,0,1,1.2-4.88,5.65,5.65,0,0,1,7.84,0,8,8,0,0,1,1.22,4.88Z"/><path class="cls-2" d="M371,91.81a7,7,0,0,0-3.45.86A7.42,7.42,0,0,0,365,94.93h-.31q-1.37-3.12-5.2-3.12a6.6,6.6,0,0,0-3.36.84,7.31,7.31,0,0,0-2.45,2.28h-.27L353,92.27h-3.76v20h4.56V100.63a5.3,5.3,0,0,1,1.14-3.5,3.51,3.51,0,0,1,2.81-1.36q3.15,0,3.15,3.64v12.85h4.56V100.63a5.4,5.4,0,0,1,1.12-3.5,3.48,3.48,0,0,1,2.8-1.36q3.15,0,3.15,3.64v12.85h4.56V98.5q0-3.5-1.63-5.09A6.18,6.18,0,0,0,371,91.81Z"/><polygon class="cls-2" points="380.71 114.12 384.01 114.12 391.19 84.33 387.93 84.33 380.71 114.12"/><path class="cls-2" d="M407,94.59h-.23q-1.81-2.78-6-2.78a6.8,6.8,0,0,0-5.59,2.63q-2.08,2.61-2.09,7.79c0,3.54.7,6.18,2.09,7.9a7.16,7.16,0,0,0,5.89,2.58,7.83,7.83,0,0,0,3.54-.79,6.62,6.62,0,0,0,2.58-2.32h.23l.38,2.66h3.76V84.78H407Zm0,7.94a8.22,8.22,0,0,1-1.1,4.69,3.94,3.94,0,0,1-3.46,1.58,4.07,4.07,0,0,1-3.57-1.5,8.38,8.38,0,0,1-1.06-4.77V102a8.46,8.46,0,0,1,1.06-4.81,4.07,4.07,0,0,1,3.57-1.5q4.56,0,4.56,6.34Z"/><path class="cls-2" d="M422.47,84.48A4.6,4.6,0,0,0,418.61,86a5.89,5.89,0,0,0-1.16,3.73v2.58h-2.89V96h2.89v16.27H422V96h3.61V92.27H422V89.91a1.51,1.51,0,0,1,1.71-1.71h1.9V85.05a9,9,0,0,0-1.46-.4A9.39,9.39,0,0,0,422.47,84.48Z"/><path class="cls-2" d="M450.55,91.81a7.07,7.07,0,0,0-3.46.86,7.29,7.29,0,0,0-2.54,2.26h-.31c-.91-2.08-2.65-3.12-5.2-3.12a6.66,6.66,0,0,0-3.37.84,7.5,7.5,0,0,0-2.45,2.28H433l-.38-2.66h-3.77v20h4.56V100.63a5.3,5.3,0,0,1,1.14-3.5,3.53,3.53,0,0,1,2.82-1.36q3.15,0,3.15,3.64v12.85H445V100.63a5.34,5.34,0,0,1,1.12-3.5A3.47,3.47,0,0,1,449,95.77q3.17,0,3.16,3.64v12.85h4.56V98.5q0-3.5-1.64-5.09A6.15,6.15,0,0,0,450.55,91.81Z"/><path class="cls-2" d="M452.91,7.8H294.06a5.25,5.25,0,0,0-5.26,5.26V59.48h0V78l15.37-12.66H454.74a3.42,3.42,0,0,0,3.42-3.43V13.06A5.25,5.25,0,0,0,452.91,7.8ZM349.2,36.18c0,7.45-1.54,13.35-4.87,17.2s-8.22,5.9-14.63,5.9H311.22v-7.7h17.45c3.59,0,6.67-1.28,8.47-3.85,1.8-2.31,2.82-6.16,2.82-11.29,0-4.62-.77-8-2.56-10.27s-4.37-3.33-8-3.33h-8.72V44.91h-9.5V15.14h19.25c6.16,0,10.78,1.8,14.11,5.39S349.46,29.25,349.2,36.18Zm39.52-13.09H366.14v10H385.9v7.7H366.14V59.54h-9.5V15.14h32.08Zm49,36.19H429V50.55h8.72Zm0-14.11H429V22.32l-8.47,37.22h-9.24l-8.47-38V59.28h-8.47V15.14h13.86L416.44,50l8-34.9h13.34Z"/></svg>