<svg id="图层_1" data-name="图层 1" xmlns="http://www.w3.org/2000/svg" viewBox="0 0 200 53"><defs><style>.cls-1,.cls-2{fill:#fff;}.cls-1{fill-rule:evenodd;}</style></defs><title>未标题-3</title><path class="cls-1" d="M98.17,31V27.24H91.86a2.14,2.14,0,0,1-2.14-2.14V15.34a2.14,2.14,0,0,1,2.14-2.14H99a2.14,2.14,0,0,1,2.14,2.14v8.13l.32,0h3.38a3.33,3.33,0,0,1,1.77.51v-9a7.19,7.19,0,0,0-7.18-7.18h-8a7.19,7.19,0,0,0-7.18,7.18V25.53a7.18,7.18,0,0,0,7.18,7.17h7.21A3.31,3.31,0,0,1,98.17,31Z"/><rect class="cls-2" x="99.77" y="25.05" width="6.86" height="7.65" rx="1.7"/><polygon class="cls-1" points="74.23 7.94 74.23 17.21 63.89 17.21 63.89 7.94 57.87 7.94 57.87 32.49 63.89 32.49 63.89 23.23 74.23 23.23 74.23 32.49 80.25 32.49 80.25 7.94 74.23 7.94"/><path class="cls-1" d="M39.7,38.54a4.88,4.88,0,1,0,4.88,4.87A4.87,4.87,0,0,0,39.7,38.54ZM34.17,4H10.75A10.51,10.51,0,0,0,.27,14.46V37.88A10.51,10.51,0,0,0,10.75,48.36H34.62a7.12,7.12,0,0,1-1.82-6.54h-22a3.94,3.94,0,0,1-3.93-3.93V14.46a3.94,3.94,0,0,1,3.93-3.93H34.17a3.94,3.94,0,0,1,3.93,3.93v22a7.12,7.12,0,0,1,6.54,1.82c0-.15,0-.3,0-.45V14.46A10.52,10.52,0,0,0,34.17,4Zm-.39,33.51V14.85H27.23v8H17.69v-8H11.14V37.49h6.55v-8h9.54v8Z"/><path class="cls-2" d="M57.33,38.75h1.94l1,5.33L62,38.75h1.65l1.91,5.33.86-5.33h2l-2,7.66H64.66L62.86,41,61,46.41H59.19Z"/><path class="cls-2" d="M69.88,38.75h1.94l1,5.33,1.78-5.33h1.65l1.91,5.33L79,38.75h2l-2,7.66H77.21L75.41,41l-1.82,5.43H71.74Z"/><path class="cls-2" d="M82.43,38.75h1.94l1,5.33,1.78-5.33h1.65l1.91,5.33.86-5.33h2l-2,7.66H89.76L88,41l-1.82,5.43H84.29Z"/><path class="cls-2" d="M97.38,44.62v1.79H95.45V44.62Z"/><path class="cls-2" d="M99.92,46.41V36h1.93v3.75a3,3,0,0,1,2.31-1c1.81,0,2.72,1,2.72,2.83v4.83H105V41.58a1.12,1.12,0,0,0-1.26-1.27,2.85,2.85,0,0,0-1.84.75v5.35Z"/><path class="cls-2" d="M118.78,42.58c0-2.56,1.26-3.85,3.79-3.85s3.79,1.29,3.79,3.85-1.26,3.84-3.79,3.84S118.79,45.14,118.78,42.58ZM122.57,45q1.86,0,1.86-2.4t-1.86-2.34q-1.86,0-1.86,2.34T122.57,45Z"/><path class="cls-2" d="M128.71,46.41V38.75h1.5l.24,1.13A3.42,3.42,0,0,1,133,38.75c1.81,0,2.72,1,2.72,2.83v4.83h-1.94V41.58a1.12,1.12,0,0,0-1.26-1.27,2.83,2.83,0,0,0-1.83.75v5.35Z"/><path class="cls-2" d="M140.32,36V46.41h-1.93V36Z"/><path class="cls-2" d="M145,36v1.54H143V36Zm0,2.77v7.66H143V38.75Z"/><path class="cls-2" d="M147.69,46.41V38.75h1.5l.24,1.13a3.42,3.42,0,0,1,2.5-1.13c1.82,0,2.72,1,2.72,2.83v4.83h-1.93V41.58a1.12,1.12,0,0,0-1.26-1.27,2.85,2.85,0,0,0-1.84.75v5.35Z"/><path class="cls-2" d="M160.6,38.75q3.48,0,3.48,3.56a7.57,7.57,0,0,1-.06.95h-5.08q0,1.62,2.37,1.62a12.93,12.93,0,0,0,2.32-.22v1.53a12.18,12.18,0,0,1-2.46.22c-2.78,0-4.16-1.31-4.16-3.92S158.2,38.75,160.6,38.75Zm-1.66,3.17h3.26v-.06a1.41,1.41,0,0,0-1.6-1.59C159.58,40.27,159,40.82,158.94,41.92Z"/><path class="cls-2" d="M168.18,44.62v1.79h-1.93V44.62Z"/><path class="cls-2" d="M176.36,46.19a9,9,0,0,1-2,.22c-2.73,0-4.09-1.33-4.09-4q0-3.69,4.09-3.69a9,9,0,0,1,2,.22V40.5a8.44,8.44,0,0,0-1.82-.22c-1.53,0-2.29.72-2.29,2.16,0,1.62.76,2.44,2.29,2.44a8.44,8.44,0,0,0,1.82-.22Z"/><path class="cls-2" d="M178.17,42.58c0-2.56,1.27-3.85,3.79-3.85s3.79,1.29,3.79,3.85-1.26,3.84-3.79,3.84S178.18,45.14,178.17,42.58ZM182,45q1.86,0,1.86-2.4T182,40.21q-1.86,0-1.86,2.34T182,45Z"/><path class="cls-2" d="M188.11,46.41V38.75h1.49l.23,1.11a3.23,3.23,0,0,1,2.47-1.11,2,2,0,0,1,2,1,3.65,3.65,0,0,1,2.46-1q2.64,0,2.64,2.91v4.75h-1.94V41.59c0-.85-.38-1.28-1.15-1.28a2.36,2.36,0,0,0-1.65.78v5.32H192.7v-4.8c0-.86-.36-1.3-1.07-1.3a2.2,2.2,0,0,0-1.59.78v5.32Z"/><path class="cls-2" d="M113.2,38.75c-2.64,0-4,1.27-4,3.79s1.16,3.87,3.49,3.87a4.35,4.35,0,0,0,1.39-.24v-1.6a3.09,3.09,0,0,1-1.17.23q-1.8,0-1.8-2.28c0-1.47.69-2.21,2.08-2.21a5,5,0,0,1,1.27.18v8.69h1.94V39.07A18.27,18.27,0,0,0,113.2,38.75Z"/><path class="cls-2" d="M126.31,16.65H125a2.74,2.74,0,0,0-1.81.48,2,2,0,0,0-.55,1.57v2.5a2,2,0,0,0,.57,1.56,2.71,2.71,0,0,0,1.79.49h1.29a2.67,2.67,0,0,0,1.75-.47,2,2,0,0,0,.56-1.58V18.7C128.62,17.33,127.85,16.65,126.31,16.65Z"/><path class="cls-2" d="M197.67,7.65H113.3a2,2,0,0,0-2,2V34.46l5.87-4.83h80.53a2,2,0,0,0,2-2V9.68A2,2,0,0,0,197.67,7.65ZM132,21.54a5.56,5.56,0,0,1-1.18,4,5.26,5.26,0,0,1-3.94,1.24h-2.54a5.31,5.31,0,0,1-3.92-1.23,5.53,5.53,0,0,1-1.2-4V18.38a5.52,5.52,0,0,1,1.25-3.92,5.12,5.12,0,0,1,3.87-1.32h2.54a5.08,5.08,0,0,1,3.85,1.33A5.45,5.45,0,0,1,132,18.38Zm15.67,5.2h-3.39V18.86c0-1.37-.77-2.05-2.31-2.05h-1.29a2.74,2.74,0,0,0-1.81.48,2,2,0,0,0-.55,1.57v7.88H134.9v-8.2a5.52,5.52,0,0,1,1.25-3.92A5.12,5.12,0,0,1,140,13.3h2.54a5.08,5.08,0,0,1,3.85,1.33,5.45,5.45,0,0,1,1.27,3.91Zm6.32,0h-3.43V10.2H154Zm6.32,0h-3.43V15.3h3.43Zm0-13.89a1,1,0,0,1-1,1h-1.44a1,1,0,0,1-1-1V11.19a1,1,0,0,1,1-1h1.44a1,1,0,0,1,1,1ZM176,26.74h-3.38V18.86c0-1.37-.78-2.05-2.32-2.05H169a2.76,2.76,0,0,0-1.81.48,2,2,0,0,0-.55,1.57v7.88h-3.42v-8.2a5.52,5.52,0,0,1,1.24-3.92,5.12,5.12,0,0,1,3.87-1.32h2.54a5.08,5.08,0,0,1,3.85,1.33A5.45,5.45,0,0,1,176,18.54Zm15.67-5.86h-6.91a1.07,1.07,0,1,1,0-2.13h3.52V18.7c0-1.37-.77-2.05-2.31-2.05h-1.29a2.74,2.74,0,0,0-1.81.48,2,2,0,0,0-.55,1.57v2.5a2,2,0,0,0,.57,1.56,2.71,2.71,0,0,0,1.79.49H186a2.67,2.67,0,0,0,1.75-.47,1.37,1.37,0,0,0,.37-.53h3.56a5.09,5.09,0,0,1-1.16,3.25,5.24,5.24,0,0,1-3.94,1.24H184a5.31,5.31,0,0,1-3.92-1.23,5.53,5.53,0,0,1-1.19-4V18.38a5.52,5.52,0,0,1,1.24-3.92A5.12,5.12,0,0,1,184,13.14h2.54a5.08,5.08,0,0,1,3.85,1.33,5.45,5.45,0,0,1,1.27,3.91Z"/></svg>