<?xml version="1.0" encoding="UTF-8" standalone="no"?> <svg xmlns="http://www.w3.org/2000/svg" xmlns:xlink="http://www.w3.org/1999/xlink" xmlns:serif="http://www.serif.com/" width="100%" height="100%" viewBox="0 0 888 274" version="1.1" xml:space="preserve" style="fill-rule:evenodd;clip-rule:evenodd;stroke-linejoin:round;stroke-miterlimit:2;"> <g transform="matrix(1,0,0,1,0,-370)"> <g id="Circuit-Technology-Center-Vector" transform="matrix(0.821704,0,0,0.253053,0,370.025)"> <rect x="0" y="0" width="1080" height="1080" style="fill:none;"></rect> <g> <g transform="matrix(3.86505,0,0,12.5504,-128.197,5210.38)"> <path d="M67.902,-369.178C67.852,-364.228 67.702,-364.178 56.552,-364.178C45.852,-364.178 45.702,-364.278 45.702,-372.828C45.702,-377.878 46.102,-379.828 47.302,-380.828C48.302,-381.628 50.152,-381.828 56.502,-381.828C62.902,-381.828 65.852,-381.528 66.602,-380.878C67.202,-380.378 67.302,-379.928 67.402,-377.728L77.552,-377.728L77.552,-379.378C77.552,-384.728 76.552,-387.178 73.702,-388.628C71.402,-389.828 68.302,-390.178 59.402,-390.178C41.952,-390.178 38.302,-389.328 36.502,-384.828C35.752,-382.978 35.552,-380.228 35.552,-372.778C35.552,-368.528 35.652,-365.778 35.802,-364.278C36.202,-360.878 37.202,-359.028 39.402,-357.778C42.102,-356.228 46.302,-355.828 59.352,-355.828C66.752,-355.828 70.402,-356.128 73.102,-356.978C76.802,-358.178 78.202,-360.628 78.202,-366.028C78.202,-366.528 78.152,-367.278 78.102,-369.178L67.902,-369.178Z" style="fill:rgb(150,0,1);fill-rule:nonzero;"></path> <rect x="81.702" y="-389.678" width="10.65" height="33.35" style="fill:rgb(150,0,1);fill-rule:nonzero;"></rect> <path d="M97.052,-356.328L107.202,-356.328L107.202,-364.778L121.552,-364.778C125.752,-364.778 126.502,-364.678 127.202,-363.878C128.002,-363.028 128.202,-361.828 128.202,-358.078L128.202,-356.328L138.202,-356.328L138.202,-359.428C138.402,-367.128 137.502,-368.628 132.352,-369.228C134.352,-369.528 135.302,-369.878 136.252,-370.628C138.052,-371.978 138.552,-373.878 138.552,-378.828C138.552,-384.628 137.802,-386.828 135.252,-388.378C133.102,-389.678 133.102,-389.678 121.602,-389.678L97.052,-389.678L97.052,-356.328ZM107.202,-373.128L107.202,-381.328L121.502,-381.328C126.102,-381.278 126.252,-381.278 126.952,-380.978C128.002,-380.528 128.402,-379.578 128.402,-377.328C128.402,-375.228 128.102,-374.228 127.302,-373.728C126.602,-373.228 126.602,-373.228 121.502,-373.128L107.202,-373.128Z" style="fill:rgb(150,0,1);fill-rule:nonzero;"></path> <path d="M173.902,-369.178C173.852,-364.228 173.702,-364.178 162.552,-364.178C151.852,-364.178 151.702,-364.278 151.702,-372.828C151.702,-377.878 152.102,-379.828 153.302,-380.828C154.302,-381.628 156.152,-381.828 162.502,-381.828C168.902,-381.828 171.852,-381.528 172.602,-380.878C173.202,-380.378 173.302,-379.928 173.402,-377.728L183.552,-377.728L183.552,-379.378C183.552,-384.728 182.552,-387.178 179.702,-388.628C177.402,-389.828 174.302,-390.178 165.402,-390.178C147.952,-390.178 144.302,-389.328 142.502,-384.828C141.752,-382.978 141.552,-380.228 141.552,-372.778C141.552,-368.528 141.652,-365.778 141.802,-364.278C142.202,-360.878 143.202,-359.028 145.402,-357.778C148.102,-356.228 152.302,-355.828 165.352,-355.828C172.752,-355.828 176.402,-356.128 179.102,-356.978C182.802,-358.178 184.202,-360.628 184.202,-366.028C184.202,-366.528 184.152,-367.278 184.102,-369.178L173.902,-369.178Z" style="fill:rgb(150,0,1);fill-rule:nonzero;"></path> <path d="M187.502,-389.678L187.502,-374.328C187.552,-368.928 187.552,-368.928 187.602,-367.828C187.852,-362.928 188.402,-360.878 190.052,-359.178C192.552,-356.528 196.552,-355.828 209.302,-355.828C217.052,-355.828 220.402,-356.028 223.402,-356.628C227.202,-357.428 229.752,-360.078 230.302,-363.878C230.602,-366.228 230.652,-366.778 230.802,-374.328L230.802,-389.678L220.652,-389.678L220.652,-374.328C220.652,-373.628 220.602,-372.028 220.552,-370.878C220.402,-367.728 220.152,-366.828 219.352,-365.978C218.252,-364.778 216.152,-364.478 209.152,-364.478C200.502,-364.478 198.552,-365.028 198.002,-367.678C197.752,-369.028 197.752,-369.078 197.652,-374.328L197.652,-389.678L187.502,-389.678Z" style="fill:rgb(150,0,1);fill-rule:nonzero;"></path> <rect x="235.352" y="-389.678" width="10.65" height="33.35" style="fill:rgb(150,0,1);fill-rule:nonzero;"></rect> <path d="M248.352,-389.678L248.352,-381.178L263.202,-381.178L263.202,-356.328L273.852,-356.328L273.852,-381.178L288.702,-381.178L288.702,-389.678L248.352,-389.678Z" style="fill:rgb(150,0,1);fill-rule:nonzero;"></path> </g> <g transform="matrix(1.23664,0,0,4.01558,-10.9709,2458.89)"> <path d="M33.902,-389.678L33.902,-381.178L48.752,-381.178L48.752,-356.328L59.402,-356.328L59.402,-381.178L74.252,-381.178L74.252,-389.678L33.902,-389.678Z" style="fill:rgb(0,52,102);fill-rule:nonzero;"></path> <path d="M76.602,-389.678L76.602,-356.328L113.702,-356.328L113.702,-364.328L86.602,-364.328L86.602,-369.628L112.152,-369.628L112.152,-376.978L86.602,-376.978L86.602,-381.828L113.502,-381.828L113.502,-389.678L76.602,-389.678Z" style="fill:rgb(0,52,102);fill-rule:nonzero;"></path> <path d="M148.552,-369.178C148.502,-364.228 148.352,-364.178 137.202,-364.178C126.502,-364.178 126.352,-364.278 126.352,-372.828C126.352,-377.878 126.752,-379.828 127.952,-380.828C128.952,-381.628 130.802,-381.828 137.152,-381.828C143.552,-381.828 146.502,-381.528 147.252,-380.878C147.852,-380.378 147.952,-379.928 148.052,-377.728L158.202,-377.728L158.202,-379.378C158.202,-384.728 157.202,-387.178 154.352,-388.628C152.052,-389.828 148.952,-390.178 140.052,-390.178C122.602,-390.178 118.952,-389.328 117.152,-384.828C116.402,-382.978 116.202,-380.228 116.202,-372.778C116.202,-368.528 116.302,-365.778 116.452,-364.278C116.852,-360.878 117.852,-359.028 120.052,-357.778C122.752,-356.228 126.952,-355.828 140.002,-355.828C147.402,-355.828 151.052,-356.128 153.752,-356.978C157.452,-358.178 158.852,-360.628 158.852,-366.028C158.852,-366.528 158.802,-367.278 158.752,-369.178L148.552,-369.178Z" style="fill:rgb(0,52,102);fill-rule:nonzero;"></path> <path d="M162.302,-389.678L162.302,-356.328L172.952,-356.328L172.952,-368.378L195.902,-368.378L195.902,-356.328L206.552,-356.328L206.552,-389.678L195.902,-389.678L195.902,-377.728L172.952,-377.728L172.952,-389.678L162.302,-389.678Z" style="fill:rgb(0,52,102);fill-rule:nonzero;"></path> <path d="M211.252,-389.678L211.252,-356.328L221.602,-356.328L221.352,-381.228L222.452,-381.228L240.002,-356.328L257.652,-356.328L257.652,-389.678L247.302,-389.678L247.552,-364.828L246.502,-364.828L229.052,-389.678L211.252,-389.678Z" style="fill:rgb(0,52,102);fill-rule:nonzero;"></path> <path d="M284.502,-390.178C270.552,-390.178 267.452,-389.828 264.902,-387.878C262.352,-385.928 261.602,-382.528 261.602,-373.228C261.602,-363.428 262.302,-360.128 264.902,-358.128C267.452,-356.178 270.552,-355.828 284.602,-355.828C298.402,-355.828 301.552,-356.178 304.102,-358.128C306.652,-360.078 307.402,-363.428 307.402,-373.028C307.402,-382.578 306.652,-385.928 304.102,-387.878C301.552,-389.828 298.452,-390.178 284.502,-390.178ZM284.502,-381.528C293.802,-381.528 294.902,-381.378 296.052,-380.028C296.952,-378.928 297.252,-377.028 297.252,-372.078C297.252,-368.028 296.902,-366.578 295.752,-365.678C294.402,-364.678 292.752,-364.478 284.602,-364.478C276.202,-364.478 274.602,-364.628 273.252,-365.678C272.052,-366.628 271.752,-367.978 271.752,-372.128C271.752,-376.378 271.952,-378.278 272.552,-379.428C273.552,-381.378 274.502,-381.528 284.502,-381.528Z" style="fill:rgb(0,52,102);fill-rule:nonzero;"></path> <path d="M311.402,-389.678L311.402,-356.328L345.752,-356.328L345.752,-364.828L322.052,-364.828L322.052,-389.678L311.402,-389.678Z" style="fill:rgb(0,52,102);fill-rule:nonzero;"></path> <path d="M370.952,-390.178C357.002,-390.178 353.902,-389.828 351.352,-387.878C348.802,-385.928 348.052,-382.528 348.052,-373.228C348.052,-363.428 348.752,-360.128 351.352,-358.128C353.902,-356.178 357.002,-355.828 371.052,-355.828C384.852,-355.828 388.002,-356.178 390.552,-358.128C393.102,-360.078 393.852,-363.428 393.852,-373.028C393.852,-382.578 393.102,-385.928 390.552,-387.878C388.002,-389.828 384.902,-390.178 370.952,-390.178ZM370.952,-381.528C380.252,-381.528 381.352,-381.378 382.502,-380.028C383.402,-378.928 383.702,-377.028 383.702,-372.078C383.702,-368.028 383.352,-366.578 382.202,-365.678C380.852,-364.678 379.202,-364.478 371.052,-364.478C362.652,-364.478 361.052,-364.628 359.702,-365.678C358.502,-366.628 358.202,-367.978 358.202,-372.128C358.202,-376.378 358.402,-378.278 359.002,-379.428C360.002,-381.378 360.952,-381.528 370.952,-381.528Z" style="fill:rgb(0,52,102);fill-rule:nonzero;"></path> <path d="M418.052,-375.228L418.052,-368.578L431.402,-368.578L431.402,-367.628C431.402,-363.928 431.102,-363.828 419.252,-363.828L413.302,-363.928C410.452,-364.028 409.552,-364.178 408.702,-364.878C407.602,-365.778 407.302,-367.478 407.302,-373.128C407.302,-381.778 407.352,-381.828 419.352,-381.828C426.952,-381.828 429.302,-381.628 430.302,-380.928C430.952,-380.478 431.052,-380.078 431.102,-378.128L441.252,-378.128C441.202,-383.028 440.802,-385.078 439.402,-386.728C437.202,-389.378 432.602,-390.178 420.202,-390.178C398.602,-390.178 397.152,-389.128 397.152,-373.528C397.152,-362.578 397.702,-360.128 400.652,-358.178C403.452,-356.278 407.002,-355.828 418.452,-355.828C427.502,-355.828 431.002,-356.028 434.402,-356.728C438.402,-357.528 440.552,-359.828 440.952,-363.728C441.102,-365.328 441.302,-371.028 441.302,-374.328L441.302,-375.228L418.052,-375.228Z" style="fill:rgb(0,52,102);fill-rule:nonzero;"></path> <path d="M441.302,-389.678L460.402,-368.128L460.402,-356.328L470.902,-356.328L470.902,-368.128L489.152,-389.678L475.902,-389.678L465.502,-376.328L454.652,-389.678L441.302,-389.678Z" style="fill:rgb(0,52,102);fill-rule:nonzero;"></path> <path d="M534.652,-369.178C534.602,-364.228 534.452,-364.178 523.302,-364.178C512.602,-364.178 512.452,-364.278 512.452,-372.828C512.452,-377.878 512.852,-379.828 514.052,-380.828C515.052,-381.628 516.902,-381.828 523.252,-381.828C529.652,-381.828 532.602,-381.528 533.352,-380.878C533.952,-380.378 534.052,-379.928 534.152,-377.728L544.302,-377.728L544.302,-379.378C544.302,-384.728 543.302,-387.178 540.452,-388.628C538.152,-389.828 535.052,-390.178 526.152,-390.178C508.702,-390.178 505.052,-389.328 503.252,-384.828C502.502,-382.978 502.302,-380.228 502.302,-372.778C502.302,-368.528 502.402,-365.778 502.552,-364.278C502.952,-360.878 503.952,-359.028 506.152,-357.778C508.852,-356.228 513.052,-355.828 526.102,-355.828C533.502,-355.828 537.152,-356.128 539.852,-356.978C543.552,-358.178 544.952,-360.628 544.952,-366.028C544.952,-366.528 544.902,-367.278 544.852,-369.178L534.652,-369.178Z" style="fill:rgb(0,52,102);fill-rule:nonzero;"></path> <path d="M548.452,-389.678L548.452,-356.328L585.552,-356.328L585.552,-364.328L558.452,-364.328L558.452,-369.628L584.002,-369.628L584.002,-376.978L558.452,-376.978L558.452,-381.828L585.352,-381.828L585.352,-389.678L548.452,-389.678Z" style="fill:rgb(0,52,102);fill-rule:nonzero;"></path> <path d="M588.752,-389.678L588.752,-356.328L599.102,-356.328L598.852,-381.228L599.952,-381.228L617.502,-356.328L635.152,-356.328L635.152,-389.678L624.802,-389.678L625.052,-364.828L624.002,-364.828L606.552,-389.678L588.752,-389.678Z" style="fill:rgb(0,52,102);fill-rule:nonzero;"></path> <path d="M637.452,-389.678L637.452,-381.178L652.302,-381.178L652.302,-356.328L662.952,-356.328L662.952,-381.178L677.802,-381.178L677.802,-389.678L637.452,-389.678Z" style="fill:rgb(0,52,102);fill-rule:nonzero;"></path> <path d="M680.152,-389.678L680.152,-356.328L717.252,-356.328L717.252,-364.328L690.152,-364.328L690.152,-369.628L715.702,-369.628L715.702,-376.978L690.152,-376.978L690.152,-381.828L717.052,-381.828L717.052,-389.678L680.152,-389.678Z" style="fill:rgb(0,52,102);fill-rule:nonzero;"></path> <path d="M720.452,-356.328L730.602,-356.328L730.602,-364.778L744.952,-364.778C749.152,-364.778 749.902,-364.678 750.602,-363.878C751.402,-363.028 751.602,-361.828 751.602,-358.078L751.602,-356.328L761.602,-356.328L761.602,-359.428C761.802,-367.128 760.902,-368.628 755.752,-369.228C757.752,-369.528 758.702,-369.878 759.652,-370.628C761.452,-371.978 761.952,-373.878 761.952,-378.828C761.952,-384.628 761.202,-386.828 758.652,-388.378C756.502,-389.678 756.502,-389.678 745.002,-389.678L720.452,-389.678L720.452,-356.328ZM730.602,-373.128L730.602,-381.328L744.902,-381.328C749.502,-381.278 749.652,-381.278 750.352,-380.978C751.402,-380.528 751.802,-379.578 751.802,-377.328C751.802,-375.228 751.502,-374.228 750.702,-373.728C750.002,-373.228 750.002,-373.228 744.902,-373.128L730.602,-373.128Z" style="fill:rgb(0,52,102);fill-rule:nonzero;"></path> </g> <g transform="matrix(1.99196,0,0,6.59898,1.78985,1657.16)"> <path d="M505.611,-213.124L494.753,-213.124L494.753,-222.81L505.611,-222.81L505.611,-233.454L515.493,-233.454L515.493,-222.81L526.351,-222.81L526.351,-213.124L515.493,-213.124L515.493,-202.481L505.611,-202.481L505.611,-213.124Z" style="fill:rgb(150,0,1);"></path> </g> <g transform="matrix(1.97499,0,0,6.41309,-1189.23,1616.59)"> <path d="M1092.19,-212.686C1091.85,-214.39 1091.67,-216.153 1091.67,-217.959C1091.67,-232.489 1103.46,-244.285 1117.99,-244.285C1132.52,-244.285 1144.32,-232.489 1144.32,-217.959C1144.32,-203.429 1132.52,-191.633 1117.99,-191.633C1116.18,-191.633 1114.41,-191.816 1112.7,-192.165L1112.7,-195.364C1114.4,-194.967 1116.17,-194.758 1117.99,-194.758C1130.8,-194.758 1141.19,-205.154 1141.19,-217.959C1141.19,-230.764 1130.8,-241.16 1117.99,-241.16C1105.19,-241.16 1094.79,-230.764 1094.79,-217.959C1094.79,-216.146 1095,-214.38 1095.39,-212.686L1092.19,-212.686Z" style="fill:rgb(0,52,102);"></path> </g> </g> </g> </g> </svg> 