<svg width="1080" height="144" viewBox="0 0 1080 144" fill="none" xmlns="http://www.w3.org/2000/svg">
<path d="M520.92 107.54V95.7995H526.791C527.363 95.7995 527.936 95.9426 528.509 96.229C529.092 96.5047 529.575 96.929 529.956 97.5017C530.349 98.0638 530.545 98.7638 530.545 99.6017C530.545 100.45 530.343 101.171 529.94 101.765C529.537 102.359 529.034 102.81 528.429 103.118C527.825 103.425 527.22 103.579 526.616 103.579H522.447V101.558H525.884C526.266 101.558 526.642 101.394 527.013 101.065C527.395 100.736 527.586 100.249 527.586 99.6017C527.586 98.9229 527.395 98.4562 527.013 98.2017C526.642 97.9471 526.281 97.8199 525.931 97.8199H523.656V107.54H520.92ZM528.143 102.036L530.99 107.54H527.984L525.247 102.036H528.143ZM525.422 114.54C523.662 114.54 522.013 114.211 520.475 113.554C518.937 112.896 517.585 111.984 516.418 110.817C515.251 109.651 514.339 108.298 513.682 106.761C513.024 105.223 512.695 103.574 512.695 101.813C512.695 100.052 513.024 98.4032 513.682 96.8653C514.339 95.3275 515.251 93.9752 516.418 92.8086C517.585 91.642 518.937 90.7298 520.475 90.0723C522.013 89.4147 523.662 89.0859 525.422 89.0859C527.183 89.0859 528.832 89.4147 530.37 90.0723C531.908 90.7298 533.26 91.642 534.427 92.8086C535.593 93.9752 536.505 95.3275 537.163 96.8653C537.821 98.4032 538.149 100.052 538.149 101.813C538.149 103.574 537.821 105.223 537.163 106.761C536.505 108.298 535.593 109.651 534.427 110.817C533.26 111.984 531.908 112.896 530.37 113.554C528.832 114.211 527.183 114.54 525.422 114.54ZM525.422 111.39C527.183 111.39 528.784 110.961 530.227 110.101C531.68 109.232 532.836 108.076 533.695 106.633C534.554 105.18 534.984 103.574 534.984 101.813C534.984 100.052 534.554 98.4509 533.695 97.0085C532.836 95.5555 531.68 94.3995 530.227 93.5404C528.784 92.6707 527.183 92.2359 525.422 92.2359C523.662 92.2359 522.055 92.6707 520.602 93.5404C519.149 94.3995 517.993 95.5555 517.134 97.0085C516.275 98.4509 515.845 100.052 515.845 101.813C515.845 103.574 516.275 105.18 517.134 106.633C517.993 108.076 519.149 109.232 520.602 110.101C522.055 110.961 523.662 111.39 525.422 111.39Z" fill="#111111"/>
<path d="M142.869 0L114.756 114.697H146.556L174.669 0H142.869ZM199.555 88.6927L209.694 47.3646H223.06L227.668 27.8615H214.303L221.451 0H189.651L166.373 93.3362C164.068 102.623 164.529 108.66 168.677 111.446C171.903 114.232 178.603 114.697 188.36 114.697C193.891 114.697 200.016 114.697 206.468 114.232L211.077 94.7293H206.007C200.477 95.6576 198.633 93.3362 199.555 88.6927ZM239.19 27.8615L217.99 114.697H249.789L270.99 27.8615H239.19ZM335.511 27.8615L321.685 85.4423C319.842 92.4072 316.154 95.6576 309.702 95.6576C303.711 95.6576 301.407 92.4072 303.25 85.4423L317.537 27.8615H285.737L269.607 93.8004C267.303 103.087 268.685 109.124 272.833 112.374C276.981 115.626 282.511 117.483 289.424 117.018C300.946 117.018 310.163 112.839 316.154 104.481H316.615L314.376 114.697H346.176L367.31 27.8615H335.511ZM506.493 30.1833C502.345 26.9328 496.353 25.5397 488.979 25.5397C483.91 25.5397 478.841 26.4684 474.232 28.3258C469.162 30.1833 464.554 33.8981 460.867 39.0061C459.945 34.3625 458.102 31.112 454.875 28.7903C451.649 26.4684 446.58 25.5397 439.667 25.5397C428.145 25.5397 418.928 29.719 412.476 38.5417H412.015L414.78 27.8615H382.98L361.78 114.697H393.58L407.867 57.1161C409.711 50.1507 413.397 46.9002 419.849 46.9002C425.841 46.9002 428.145 50.1507 426.302 57.1161L412.015 114.697H443.815L458.102 57.1161C459.945 50.1507 464.092 46.9002 470.084 46.9002C476.075 46.9002 478.38 50.1507 476.536 57.1161L462.71 114.697H476.536C486.675 114.697 495.892 107.731 498.197 98.908L510.179 49.222C511.562 39.9348 510.64 33.4338 506.493 30.1833ZM84.7997 0C69.13 0.464358 55.7649 9.28714 48.391 22.7536L0 114.697H36.4085L45.1649 94.7293H72.3563L71.4341 114.697H107.843L103.695 0H84.7997ZM73.7389 72.9041H54.8431L76.5041 25.0754L73.7389 72.9041Z" fill="#111111"/>
<path d="M618.963 114.751H585.766V12.2051H620.015C630.062 12.2051 638.691 14.258 645.901 18.3638C653.111 22.4363 658.636 28.2946 662.475 35.9387C666.347 43.5495 668.283 52.6792 668.283 63.3276C668.283 74.0094 666.33 83.1891 662.425 90.8667C658.553 98.5442 652.945 104.453 645.601 108.592C638.257 112.698 629.378 114.751 618.963 114.751ZM601.238 101.231H618.112C625.923 101.231 632.415 99.7626 637.589 96.8251C642.763 93.8542 646.636 89.5648 649.206 83.9569C651.776 78.3155 653.061 71.4391 653.061 63.3276C653.061 55.2828 651.776 48.4565 649.206 42.8485C646.669 37.2406 642.88 32.9846 637.84 30.0804C632.799 27.1763 626.54 25.7243 619.063 25.7243H601.238V101.231Z" fill="#AD9151"/>
<path d="M712.418 116.303C704.841 116.303 698.315 114.684 692.84 111.446C687.399 108.175 683.193 103.585 680.222 97.6763C677.285 91.7346 675.816 84.7747 675.816 76.7967C675.816 68.9189 677.285 61.9757 680.222 55.9672C683.193 49.9586 687.332 45.2686 692.64 41.8972C697.981 38.5257 704.223 36.84 711.367 36.84C715.706 36.84 719.912 37.5577 723.984 38.9931C728.057 40.4284 731.712 42.6816 734.95 45.7527C738.188 48.8237 740.742 52.8127 742.611 57.7196C744.48 62.5932 745.415 68.5183 745.415 75.4949V80.8024H684.278V69.5865H730.744C730.744 65.6476 729.943 62.1593 728.341 59.1216C726.738 56.0506 724.485 53.6305 721.581 51.8613C718.71 50.0922 715.339 49.2076 711.467 49.2076C707.261 49.2076 703.589 50.2424 700.451 52.312C697.347 54.3482 694.943 57.0186 693.241 60.3233C691.572 63.5946 690.737 67.1497 690.737 70.9885V79.7509C690.737 84.8915 691.639 89.2644 693.441 92.8695C695.277 96.4746 697.831 99.2285 701.102 101.131C704.373 103.001 708.195 103.935 712.568 103.935C715.406 103.935 717.993 103.535 720.329 102.733C722.666 101.899 724.685 100.664 726.388 99.0282C728.09 97.3926 729.392 95.373 730.293 92.9696L744.464 95.5233C743.329 99.6958 741.292 103.351 738.355 106.489C735.451 109.593 731.796 112.013 727.389 113.749C723.016 115.452 718.026 116.303 712.418 116.303Z" fill="#AD9151"/>
<path d="M818.566 37.8414L790.677 114.751H774.654L746.714 37.8414H762.787L782.265 97.0254H783.066L802.493 37.8414H818.566Z" fill="#AD9151"/>
<path d="M856.117 116.303C848.539 116.303 842.014 114.684 836.539 111.446C831.098 108.175 826.892 103.585 823.921 97.6763C820.984 91.7346 819.515 84.7747 819.515 76.7967C819.515 68.9189 820.984 61.9757 823.921 55.9672C826.892 49.9586 831.031 45.2686 836.339 41.8972C841.68 38.5257 847.922 36.84 855.065 36.84C859.405 36.84 863.611 37.5577 867.683 38.9931C871.756 40.4284 875.411 42.6816 878.649 45.7527C881.887 48.8237 884.44 52.8127 886.31 57.7196C888.179 62.5932 889.114 68.5183 889.114 75.4949V80.8024H827.977V69.5865H874.443C874.443 65.6476 873.642 62.1593 872.039 59.1216C870.437 56.0506 868.184 53.6305 865.28 51.8613C862.409 50.0922 859.038 49.2076 855.166 49.2076C850.96 49.2076 847.288 50.2424 844.15 52.312C841.046 54.3482 838.642 57.0186 836.94 60.3233C835.271 63.5946 834.436 67.1497 834.436 70.9885V79.7509C834.436 84.8915 835.337 89.2644 837.14 92.8695C838.976 96.4746 841.53 99.2285 844.801 101.131C848.072 103.001 851.894 103.935 856.267 103.935C859.104 103.935 861.691 103.535 864.028 102.733C866.365 101.899 868.384 100.664 870.087 99.0282C871.789 97.3926 873.091 95.373 873.992 92.9696L888.162 95.5233C887.027 99.6958 884.991 103.351 882.054 106.489C879.15 109.593 875.494 112.013 871.088 113.749C866.715 115.452 861.725 116.303 856.117 116.303Z" fill="#AD9151"/>
<path d="M913.646 12.2051V114.751H898.675V12.2051H913.646Z" fill="#AD9151"/>
<path d="M959.133 116.303C951.923 116.303 945.631 114.65 940.256 111.346C934.882 108.041 930.709 103.418 927.738 97.476C924.768 91.5343 923.282 84.5911 923.282 76.6465C923.282 68.6685 924.768 61.6919 927.738 55.7168C930.709 49.7417 934.882 45.1017 940.256 41.7971C945.631 38.4924 951.923 36.84 959.133 36.84C966.343 36.84 972.635 38.4924 978.01 41.7971C983.384 45.1017 987.557 49.7417 990.528 55.7168C993.498 61.6919 994.984 68.6685 994.984 76.6465C994.984 84.5911 993.498 91.5343 990.528 97.476C987.557 103.418 983.384 108.041 978.01 111.346C972.635 114.65 966.343 116.303 959.133 116.303ZM959.183 103.735C963.856 103.735 967.729 102.5 970.8 100.03C973.871 97.5595 976.141 94.2715 977.609 90.1657C979.111 86.0598 979.862 81.5368 979.862 76.5964C979.862 71.6895 979.111 67.1831 977.609 63.0772C976.141 58.938 973.871 55.6167 970.8 53.1131C967.729 50.6096 963.856 49.3578 959.183 49.3578C954.476 49.3578 950.571 50.6096 947.466 53.1131C944.395 55.6167 942.109 58.938 940.607 63.0772C939.138 67.1831 938.404 71.6895 938.404 76.5964C938.404 81.5368 939.138 86.0598 940.607 90.1657C942.109 94.2715 944.395 97.5595 947.466 100.03C950.571 102.5 954.476 103.735 959.183 103.735Z" fill="#AD9151"/>
<path d="M1004.65 143.591V37.8414H1019.27V50.3091H1020.52C1021.39 48.7069 1022.64 46.8542 1024.27 44.7512C1025.91 42.6483 1028.18 40.8123 1031.08 39.2434C1033.99 37.6412 1037.83 36.84 1042.6 36.84C1048.81 36.84 1054.35 38.4089 1059.22 41.5467C1064.1 44.6845 1067.92 49.2076 1070.69 55.1159C1073.49 61.0243 1074.89 68.1344 1074.89 76.4462C1074.89 84.758 1073.51 91.8848 1070.74 97.8265C1067.97 103.735 1064.16 108.291 1059.32 111.496C1054.48 114.667 1048.96 116.253 1042.75 116.253C1038.08 116.253 1034.25 115.468 1031.28 113.899C1028.35 112.33 1026.04 110.494 1024.37 108.392C1022.7 106.289 1021.42 104.419 1020.52 102.784H1019.62V143.591H1004.65ZM1019.32 76.296C1019.32 81.7037 1020.1 86.4437 1021.67 90.5162C1023.24 94.5886 1025.51 97.7765 1028.48 100.08C1031.45 102.35 1035.09 103.485 1039.39 103.485C1043.87 103.485 1047.61 102.3 1050.61 99.9295C1053.61 97.5261 1055.88 94.2715 1057.42 90.1657C1058.99 86.0598 1059.77 81.4366 1059.77 76.296C1059.77 71.2221 1059.01 66.6657 1057.47 62.6266C1055.97 58.5875 1053.7 55.3997 1050.66 53.063C1047.66 50.7264 1043.9 49.5581 1039.39 49.5581C1035.05 49.5581 1031.38 50.6763 1028.38 52.9128C1025.41 55.1493 1023.15 58.2704 1021.62 62.2761C1020.08 66.2818 1019.32 70.9551 1019.32 76.296Z" fill="#AD9151"/>
</svg>
